<svg viewBox="0 0 407 403" xmlns="http://www.w3.org/2000/svg" fill="#ff642d" class="background__SCSunShape-sc-1bczc2v-5 kkAKoD"><path d="M406.6 130.3C369 64.3 283 20.4 195.4 47.4c-1.1.3-1.9-1.1-1-1.8C222.5 20.8 259 7.2 297 8.8c1.3.1 1.5-1.8.3-2.1-79.7-19.5-160.1 9.7-206.5 89.5-.6 1-2.1.5-2-.7 4-36.7 18.9-65.7 43.1-89.6.9-.9-.3-2.3-1.3-1.7-65.2 41.4-100.7 120.5-79.3 202 .3 1.1-1.1 1.8-1.8 1-25.6-29.2-37.7-64-36-103.7.1-1.3-1.8-1.5-2.1-.3-20.8 78.2 10 165 89.4 208.3 1 .6.6 2.1-.6 2-41.2-2.7-75.3-22.2-98.3-47.6-.9-1-2.3.1-1.7 1.3 40.9 71.2 127.9 108.4 211.7 83.3 1.1-.3 1.9 1.1 1 1.8-24 21.4-58.8 38.6-104.1 36.5-1.3-.1-1.6 1.8-.3 2.1 86.6 22.4 171.1-20.2 208.1-91.9.5-1 2.1-.6 2 .6-2.1 37.7-17.8 73.4-48.1 100.7-.9.9.2 2.3 1.3 1.7 74.2-42.4 107.6-132 82.4-212.6-.3-1.1 1.1-1.9 1.8-1 23.2 25.7 39.2 60.5 37.3 104.5-.1 1.3 1.8 1.5 2.1.3 20.8-83.8-16.6-167.4-92.1-207.7-1-.5-.6-2.1.6-2 42.8 2.3 77.3 21.6 101 48 .8 1 2.3-.1 1.7-1.2z"/></svg>